<svg id="Calque_1" data-name="Calque 1" xmlns="http://www.w3.org/2000/svg" viewBox="0 0 86.38 76.13"><title>cheveux</title><path d="M92.42,76.37c-1.62,2.48-5.34,3.34-9.45.38s-2.86-14.51-3.53-34.17S72.09,16.43,64.84,13c-4-1.89-10.19-.87-15,.44-4.51-1.31-10.59-2.39-14.7-.44-7.25,3.43-13.93,9.92-14.6,29.58S21.13,73.79,17,76.75s-7.83,2.1-9.45-.38c0,0-.86-.38-.76.85s4.39,8.5,14.41,10.22c9.2,1.57,19.81.64,22.54-8.3H40.45A11.46,11.46,0,0,1,29,67.68V54.82c12.83-7.43,18-16.34,18-16.34a103.41,103.41,0,0,1-1.72,10.3A27,27,0,0,0,60.22,34.9c1.61,2.43,5.5,7.23,11.73,8.88v23.9A11.46,11.46,0,0,1,60.5,79.14H56.23C59,88.08,69.58,89,78.77,87.44c10-1.72,14.32-9,14.41-10.22S92.42,76.37,92.42,76.37Z" transform="translate(-6.81 -11.94)"/></svg>