<svg id="Calque_1" data-name="Calque 1" xmlns="http://www.w3.org/2000/svg" viewBox="0 0 87.61 88"><title>habit</title><path d="M40.44,6a2.19,2.19,0,0,0-2.19,1.28l-2.9,5.84H28.82a2.14,2.14,0,0,0-1.1.35L7.07,26.91a2.08,2.08,0,0,0-.57,2.78l9.66,14.78a2.08,2.08,0,0,0,2.75.59l6.34-4.12V92a2.08,2.08,0,0,0,2,2H72.72a2.07,2.07,0,0,0,2-2V40.94l6.35,4.12a2.07,2.07,0,0,0,2.78-.59L93.5,29.69a2.07,2.07,0,0,0-.59-2.78L72.25,13.47a2.09,2.09,0,0,0-1.06-.35H64.66L61.79,7.37a2,2,0,0,0-2-1.37Zm5.06,4h9L50,13.84Zm-4.75,1.19,6.16,5.28L40.47,22l-1.78-6.66Zm18.47,0,2.1,4.18L59.5,22l-6.43-5.53ZM50.1,22.62a2.26,2.26,0,0,1,2.25,2.25,2.23,2.23,0,0,1-2.25,2.22,2.2,2.2,0,0,1-2.22-2.22A2.22,2.22,0,0,1,50.1,22.62Zm.19,8.72a2.26,2.26,0,0,1,2.25,2.25,2.23,2.23,0,0,1-2.25,2.22,2.2,2.2,0,0,1-2.22-2.22A2.22,2.22,0,0,1,50.29,31.34Z" transform="translate(-6.19 -6)"/></svg>