<svg id="Calque_1" data-name="Calque 1" xmlns="http://www.w3.org/2000/svg" viewBox="0 0 216.88 333.82"><title>nez</title><path d="M101,7c3-6,9-9,15-6,5,3,8,9,5,15L35,205c-8,14-29,54,16,52,21,0,63-2,83,10h0c26,15,13,35,2,54l-5,7c-3,6-10,7-15,4s-7-10-4-15l4-7c12-21,27-34-65-30-79,2-45-66-35-86Zm68,183c-5-4-7-11-3-16,3-5,10-7,15-3,0,0,81,52,0,105-5,4-12,2-15-3-4-5-2-12,3-15C221,223,169,190,169,190ZM83,243c-5,3-12,1-15-4s-1-12,4-15c0,0,34-20,65,2,5,3,6,10,3,15a12.48,12.48,0,0,1-16,3C105,230,83,243,83,243Z" transform="translate(-0.12 0.18)"/></svg>