<svg id="Calque_1" data-name="Calque 1" xmlns="http://www.w3.org/2000/svg" viewBox="0 0 59.92 91.34"><title>skins</title><path d="M37.51,6c-4.77,1.17-3.47,7.05.45,5.1.07,0,22.8-7.64,37.69,16,1.83,2.91,4.28-.86,3.29-2.92C75.8,17.7,62.27,0,37.51,6ZM26.71,55c-2.81-18.1,4.77-30.1,14.21-32.53,22.46-5.79,33.57,21.9,33.57,36.46,0,14.22-10.14,20.47-17.37,19.84C45,77.67,39.25,65,37.49,55.08c-.43-2.42-3.78-21,11.22-21.08C58.92,33.92,64.66,51.6,64,58.41c-.43,4.45-2.52,9.1-7.25,8.69-6.3-.56-8.61-9.62-8.93-13.2-.07-.56-1.36-7.58,2.07-7,2.37.41,2.95,4.82,3,5.11a20.45,20.45,0,0,1,.69,3.61A14.48,14.48,0,0,0,53.92,59a3.11,3.11,0,0,0,2.61,2.19A2.53,2.53,0,0,0,59,59.13c.11-6.94-2.79-19.28-11-18.55-4.6.4-7,5.67-5.72,14.17C43.59,63,47.9,72.11,56.41,72.86c9.36.82,13.13-7.71,13.13-14.14,0-18.34-12.4-35.17-27.06-30.13-8.42,2.89-13.52,12.05-10.65,27,3,15.49,12.15,29.7,25.45,29.32,24.35-.71,22.65-26.64,22.65-26.64,0-23.83-19.3-51.4-44.06-40.67C25.66,22,17.67,37,20.69,55.17c7.64,46.19,41,40.89,42.59,40.65h.12c5.32-.77,4.23-6.71.34-6C41.63,93.57,29.7,74.14,26.71,55Z" transform="translate(-20.04 -4.77)"/></svg>